<?xml version="1.0" encoding="UTF-8" standalone="no"?><!DOCTYPE svg PUBLIC "-//W3C//DTD SVG 1.1//EN" "http://www.w3.org/Graphics/SVG/1.1/DTD/svg11.dtd"><!-- Generated by graphviz version 2.40.1 (20161225.0304)
 --><!-- Title: G Pages: 1 --><svg xmlns="http://www.w3.org/2000/svg" xmlns:xlink="http://www.w3.org/1999/xlink" width="156pt" height="188pt" viewBox="0.00 0.00 155.82 188.00">
<g id="graph0" class="graph" transform="scale(1 1) rotate(0) translate(4 184)">
<title>G</title>
<polygon fill="#ffffff" stroke="transparent" points="-4,4 -4,-184 151.8208,-184 151.8208,4 -4,4"/>
<!-- LogIn -->
<g id="node1" class="node">
<title>LogIn</title>
<ellipse fill="none" stroke="#000000" cx="79.5452" cy="-162" rx="34.7728" ry="18"/>
<text text-anchor="middle" x="79.5452" y="-157.8" font-family="Times,serif" font-size="14.00" fill="#000000">LogIn</text>
</g>
<!-- SignUp -->
<g id="node2" class="node">
<title>SignUp</title>
<ellipse fill="none" stroke="#000000" cx="40.5452" cy="-90" rx="40.5905" ry="18"/>
<text text-anchor="middle" x="40.5452" y="-85.8" font-family="Times,serif" font-size="14.00" fill="#000000">SignUp</text>
</g>
<!-- LogIn&#45;&gt;SignUp -->
<g id="edge1" class="edge">
<title>LogIn-&gt;SignUp</title>
<path fill="none" stroke="#000000" d="M64.9347,-145.6621C59.4416,-137.2603 53.5051,-126.7974 48.7201,-117.2181"/>
<polygon fill="#000000" stroke="#000000" points="51.8192,-115.5843 44.3781,-108.0423 45.4918,-118.5785 51.8192,-115.5843"/>
</g>
<!-- Chat -->
<g id="node3" class="node">
<title>Chat</title>
<ellipse fill="none" stroke="#000000" cx="118.5452" cy="-18" rx="29.0529" ry="18"/>
<text text-anchor="middle" x="118.5452" y="-13.8" font-family="Times,serif" font-size="14.00" fill="#000000">Chat</text>
</g>
<!-- LogIn&#45;&gt;Chat -->
<g id="edge4" class="edge">
<title>LogIn-&gt;Chat</title>
<path fill="none" stroke="#000000" d="M79.8114,-143.7623C84.0868,-118.7138 96.0973,-73.4961 105.9456,-44.6527"/>
<polygon fill="#000000" stroke="#000000" points="109.2567,-45.7879 109.3227,-35.1933 102.6642,-43.4343 109.2567,-45.7879"/>
</g>
<!-- SignUp&#45;&gt;LogIn -->
<g id="edge2" class="edge">
<title>SignUp-&gt;LogIn</title>
<path fill="none" stroke="#000000" d="M55.539,-106.9263C60.8796,-115.1567 66.6015,-125.2572 71.2548,-134.5508"/>
<polygon fill="#000000" stroke="#000000" points="68.2086,-136.2959 75.6563,-143.8314 74.5334,-133.2962 68.2086,-136.2959"/>
</g>
<!-- SignUp&#45;&gt;Chat -->
<g id="edge3" class="edge">
<title>SignUp-&gt;Chat</title>
<path fill="none" stroke="#000000" d="M58.2446,-73.6621C69.0848,-63.6558 83.092,-50.726 94.8775,-39.8471"/>
<polygon fill="#000000" stroke="#000000" points="97.2718,-42.4003 102.2458,-33.0456 92.5238,-37.2566 97.2718,-42.4003"/>
</g>
<!-- Chat&#45;&gt;LogIn -->
<g id="edge5" class="edge">
<title>Chat-&gt;LogIn</title>
<path fill="none" stroke="#000000" d="M118.2617,-36.3394C113.9798,-61.358 102.028,-106.3619 92.2041,-135.1737"/>
<polygon fill="#000000" stroke="#000000" points="88.8941,-134.0356 88.834,-144.6302 95.4879,-136.3855 88.8941,-134.0356"/>
</g>
</g>
</svg>